# xmcd
#
# Track frame offsets:
#	182
#	12222
#	26172
#	40782
#	52475
#	65907
#	78580
#	91692
#	103125
#	115962
#	128645
#	138605
#	153662
#	166260
#	177820
#	190180
#
# Disc length: 2692 seconds
#
# Revision: 1
# Processed by: cddbd v1.4PL0 Copyright (c) Steve Scherf et al.
# Submitted via: audiograbber 1.82.02
#
DISCID=df0a8210
DTITLE=Various Artist - The Blues, Vol. 6 - 50's Rarities
DYEAR=1991
DGENRE=Blues
TTITLE0=Howlin' Wolf - Going Back Home
TTITLE1=Little Walter - Juke (Alternate Take)
TTITLE2=Rocky Fuller - Funeral Hearse At My Door
TTITLE3=Blue Smitty - Date Bait
TTITLE4=Memphis Minnie - Lake Michigan
TTITLE5=Little Joe E. Lee - What Kind Of Gal Is That?
TTITLE6=Sonny Boy Williamson - I Don't Know (Alternate Take)
TTITLE7=Mayfield, Percy - Would You Call Me A Fool?
TTITLE8=Muddy Waters - All Night Long
TTITLE9=John Brim - Gary Stomp
TTITLE10=Floyd Jones - Overseas
TTITLE11=Eddie Boyd - Got Lonesome Here
TTITLE12=Alberta Adams - Messing Around With The Blues
TTITLE13=Willie Mabon - I'm Mad (Alternate Take)
TTITLE14=Floyd Dixon - Alarm Clock Blues
TTITLE15=Lowell Fulson - Don't Drive Me Baby
EXTD=
EXTT0=
EXTT1=
EXTT2=
EXTT3=
EXTT4=
EXTT5=
EXTT6=
EXTT7=
EXTT8=
EXTT9=
EXTT10=
EXTT11=
EXTT12=
EXTT13=
EXTT14=
EXTT15=
PLAYORDER=
